<svg xmlns="http://www.w3.org/2000/svg" width="1919.008" height="302.357" viewBox="0 0 1919.008 302.357"><defs><style>.a{fill:#2d2722;}</style></defs><path class="a" d="M2070.329,369.57c1.08-1.009,2.589-1.129,3.928-1.649v268.8H155.249V402.913c1.869-1.69,3.958-3.219,5.167-5.817,1.279-2.769,3.2.31,3.509,2.289,1.179,6.806,3.677,13.513,1.5,20.859,4.737-1.54,9.685,1.919,9.145,6.436-.469,4.208-1.06,9-5.907,11.124-.79.38-2.289.53-1.809,1.549a23.272,23.272,0,0,0,3.938,5.8c.91.959,2.079-.11,2.609-1.17,2.079-4.208,5.907-1.229,8.835-1.968,1.229-.27,1.759,2.338.749,3.028-4.577,3.2-4.527,11.664-12.563,10.914a2.1,2.1,0,0,0-2.339,2.449c.32,1.759,1.859,2.339,3.408,1.969a15.244,15.244,0,0,0,6.757-3.779,12.008,12.008,0,0,1,5.587-3.407c2.819-.581,4.848.37,5.218,3.407.37,2.719.58,5.477.689,8.246.05,1.069-.419,2.129.53,3.089,4.527,4.527,4.637,7.455.319,12.133A25.709,25.709,0,0,0,188.2,483.1c-.85,1.439-1.709,3.248-.06,4.527,1.549,1.17,2.988-.269,3.778-1.389,3.468-4.847,10.334-3.988,13.893-8.625a1.768,1.768,0,0,1,2.508.06,2.232,2.232,0,0,1,.48,3.028c-3.468,4.688-2.079,10.865-5.007,15.7-1.919,3.138-.43,4.157,2.878,4.307,5.747.319,6.227,1.229,3.558,6.237a32.824,32.824,0,0,1-13.253,13.943c-1.75,1.009-2.289,3.668-4.258,4.9-.21.1-.259,1.11,0,1.38a1.712,1.712,0,0,0,1.439.37c4.048-4.1,6.707-2.769,8.786,1.968.42.91,1.908.86,3.088.431,2.769-1.01,5.637-1.81,8.356-2.929,4.037-1.649,4.257-3.508.9-6.277a23.647,23.647,0,0,1-2.658-1.968,2.68,2.68,0,0,1-.37-3.569,2.316,2.316,0,0,1,2.977-.689c2.08.9,3.509,1.909,5.378-1.009,1.649-2.669,3.459,1.7,6.387,1.06-3.678-2.609-5.807-6.387-10.435-6.757a3.082,3.082,0,0,1-3.2-3.2c.06-1.859,1.39-2.389,2.988-2.709,2.449-.48,4.738-2.289,7.4-.59a1.576,1.576,0,1,0,1.06-2.928c-4.517-.049-4.738-2.548-4.418-6.226.109-1.279-2.179-2.769-3.239-4.258-.959-1.379-1.968-2.979-.539-4.517,1.439-1.5,2.718-.32,3.728.85,1.919,2.229,5.648,1.428,7.186,4.677.589,1.229.8-.58.75-.9-.8-3.138,5.956.64,3.508-3.838-1.439-2.609-3.249-4.948-4.577-7.606-.96-2.019-1.65-4.418,1.968-4.847,2.819-.37,3.669-3.138,3.568-4.838-.37-4.9,3.029-8.356,3.988-12.724.27-1.33.96-2.5,2.559-2.4a2.312,2.312,0,0,1,2.129,2.239c.26,2.928,2.02,4.577,4.518,5.8a3.662,3.662,0,0,1,2.128,3.089c.221,3.458-.949,7.566,4.258,8.734.38.1.43,2.02.38,3.138-.27,7.927,4.677,11.765,12.773,10.855,5-.53,9.636-2.5,14.633-2.819,1.6-.109,3.038-.8,3.358-2.4.37-1.86-1.439-2.659-2.718-2.93-3.939-.79-6.437-2.6-6.547-6.916-.05-.479-.43-1.379-.69-1.379-5.427-.22-4.688-6.817-8.785-8.466a2.64,2.64,0,0,1-1.6-3.668c.859-1.81,2.508-1.23,3.948-.91,6.646,1.489,13.083,4.1,20.109,3.458,1.5-.1,4.637,1.069,3.678-2.069-.59-2.079,1.439-6.706-3.408-6.076-5.747.749-6.437-4.678-9.475-7.126-1.7-1.439.64-3.039,2.289-3.249,2.718-.37,5.537-.21,8.306-.37,1.219-.06,2.978.21,2.928-1.649-.06-1.919-1.81-2.349-3.3-1.919-5.167,1.539-7.725-.43-8.515-5.588a5.931,5.931,0,0,0-1.759-2.718c-1.39-1.279-3.2-2.448-2.079-4.577,1.279-2.339,3.3-1.429,5.377-.9,3.828.96,7.237-1.758,7.456-5.806.15-2.769-.109-5.588-.16-8.356,0-1.268-.32-3.028.37-3.718,3.348-3.568,4.738-7.026,1.169-11.344a2.609,2.609,0,0,1,.75-3.508c2.709-1.71,3.618,1.859,6.227,2.289.788-2.5,1.109-4.468-1.279-6.706-3.888-3.569-3.359-7.3,1.219-9.636.908-.48,1.758-.689,1.6-1.809-.64-4.368,1.169-5.858,6.337-3.729-4.528-7.236.96-13.463-.8-19.8a2.045,2.045,0,0,1,1.7-2.448,2.46,2.46,0,0,1,3.2,1.489,40.144,40.144,0,0,1,2.129,6.866c1.119,6.547,2.658,12.613,5.956,18.741,3.408,6.386,7.077,13.143,8.786,20.439.64,2.769,1.539,3.988,4.467,2.928a2.862,2.862,0,0,1,3.519.949c1.539,1.809-.7,14.322-2.988,15.382-2.069,1.019-3.879,2.129-4.578,4.9,3.249.8,6.447,1.809,9.745,2.4,3.618.689,3.569,2.608,2.129,5.157-1.169,2.079-2.658,4.048-3.728,6.177a4.3,4.3,0,0,0,1.12,5.537c1.7,1.379,3.348.8,5.157-.161,2.4-1.379,4.367-5.587,7.346-3.518,3.2,2.189-.049,5.757-.319,8.736-.26,3.668-1.7,6.755-5.637,8.085a4.254,4.254,0,0,0-2.659,3.358c-.22,1.06-.589,2.389.37,3.089,1.12.79,2.08-.22,2.929-.91,2.978-2.609,5-5.907,7.026-9.205,1.009-1.65,2.289-3.3,4.468-2.449,2.238.85,1.759,3.029,1.379,4.838-.689,3.568-1.589,7.186-2.548,10.754-.53,2.129.049,3.838,1.859,4.738,1.869,1.009,2.448-1.009,3.408-2.02,1.169-1.229,1.859-3.778,4.208-2.4,1.968,1.169.9,3.3.479,5.057-1.548,6.277,1.06,9.365,6.967,8.406,1.12-.161,2.4-.32,2.509-1.649.1-1.44-1.07-1.859-2.239-1.909-5.807-.22-5.378-3.149-3.088-6.976,1.169-1.919,1.279-3.729-.43-5.537-1.75-1.809-2.5-4.048,0-5.637,2.508-1.709,4.847-.7,5.7,2.069,1.869,6.5,8.145,2.769,11.713,5.277a1.809,1.809,0,0,0,1.12-.91,1.89,1.89,0,0,0-.7-2.448c-2.289-1.06-4.358-2.179-3.988-5.217a.724.724,0,0,0-.21-.53c-8.9,3.089-3.838-9.105-10.064-9.265-1.38-.05-2.179-2.069-1.54-3.668.739-1.81,2.549-1.54,3.828-.96,2.238,1.12,3.2.75,4.737-1.439,1.919-2.549,3.618,1.439,6.5,1.389a22.766,22.766,0,0,0-7.717-6.127c-2.349-1.109-6.766-.689-5.7-4.358.85-2.928,5-3.568,8.306-3.678a15.452,15.452,0,0,1,2.179.38c1.009.049,1.919-.32,1.859-1.5a1.519,1.519,0,0,0-1.81-1.59c-3.828.69-4.628-1.009-3.778-4.418.64-2.448-1.759-3.408-2.868-5.007-1.12-1.54-2.289-3.348-.859-5,1.709-1.969,2.769.37,4.157,1.009,3.138,1.54,6.757,2.339,7.606,7.346.85-2.559-1.859-5.647,2.448-5.587,2.08.049,1.23-1.39.75-2.239-.959-1.809-2.189-3.458-3.138-5.217-1.66-3.088-4.318-6.277,1.809-7.826,1.489-.42,2.919-2.868,2.549-4.628-.959-5.057,3.408-8.145,4.158-12.563a2.1,2.1,0,0,1,2.229-2.02,2.38,2.38,0,0,1,2.129,2.229c.43,2.879,2.188,4.528,4.637,5.858,1.809.959,2.229,2.818,2.129,4.8-.16,2.709-.06,5.207,3.3,6.007.21.06.32.221.48.32.739.64,1.329,1.709.85,2.448-3.089,4.688,5,8.356.959,13.414-2.608,3.2-.859,5.956,3.078,6.016,5.278.1,6.976,2.02,5.327,7.027-1.539,4.738-3.458,9.415-7.026,13.144a9.667,9.667,0,0,0-1.81,2.079c-1.279,2.549-4.528,5.8-2.289,7.875,2.289,2.179,3.618-2.4,5.7-3.458,6.067-3.089,8.246-10.274,14.213-13.413,1.219-.69,2.069-2.559,3.718-1.71,1.968,1.02,1.5,2.93.7,4.418-1.489,2.829-.96,5.378-.22,8.417,1.118,4.677-.85,9.415-5.108,11.284-7.077,3.189-10.055,10.535-16.282,14.363a2.328,2.328,0,0,0-.8,1.869,1.568,1.568,0,0,0,2.129,1.219c2.5-.64,4.947-1.379,7.446-2.069,1.65-.43,3.459-.8,4.209,1.33.64,1.909-.48,3.3-2.08,4.038a14.911,14.911,0,0,1-4.2,1.389c-3.728.53-6.016,2.5-7.086,6.916,13.253-5.427,25.816-10.754,34.172-22.618,1.069-1.54,1.809-4.468,4.307-3.249,2.4,1.229.8,3.728.06,5.427-3.039,7.136-6.387,14.1-11.124,20.33-3.728,4.957,1.6,7.086,3.938,9.635,2.179,2.4,5.267,3.618,7.4-.9,1.6-3.458,4.258-6.176,4.738-10.385.529-4.2,7.136-5.107,10.055-1.809.8.96,1.6,2.129,3.248,1.869.59-2.128-.959-3.407-1.908-4.847-3.519-5.157-3.468-5.427,3.988-7.605-10.535-.431-8.246-8.576-9.745-13.573-1.38-4.478,3.358-1.39,5.327-1.809-1.759-5.168-.43-9.315,4.208-13.414,1.269-1.169.48-2.609.049-3.568-2.928-6.867,3.408-10.325,5.747-15.112,1.229-2.559,3.358.049,3.459,1.859.319,7.3,4.737,14.212,1.389,21.978,2.709.221,3.879-3.827,5.637-1.488,1.81,2.5,4.948,4.9,3.678,8.734-1.439,4.468-2.079,9.625-8.145,10.645.9,2.019,2.769,2.818,3.408,4.677.739,2.339,2.229,2.179,3.617.431.85-1.07,1.7-2.669,2.93-2.29,2.229.8,5.207-1.328,6.6,1.12,1.489,2.549-1.859,3.508-2.718,5.318-2.129,4.418-4.628,7.776-10.055,7.875a2.072,2.072,0,0,0-1.969,2.769c.42,1.23,1.649,1.33,2.769,1.39a9.5,9.5,0,0,0,5.157-1.81c9.585-5.966,9.585-5.966,19.22-1.659.371-3.078-2.238-4.568-3.358-6.7-.9-1.819-3.249-4.048-1.809-5.437,3.518-3.348,5.537-8.246,10.164-10.375.96-.43,1.919-.75,1.39-1.7-3.088-5.7,1.969-10.964.48-16.772-.8-3.088,2.129-4.467,4.468-1.859s5.746,1.06,8.085,3.029c.27.22,1.069.06,1.489-.21,3.2-1.759,4.8-2.179,6.926-1.7-3.2-2.079-5.536-5.487-9.9-5.967-1.6-.16-3.3-1.009-3.249-3.138.06-2.019,1.6-2.129,3.089-2.559,2.4-.689,4.528-2.5,7.346-1.169a1.7,1.7,0,0,0,2.559-1.219c.16-1.39-.959-2.079-2.189-1.87-3.618.64-4.307-1.058-3.508-4.1.739-2.819-1.919-3.718-3.039-5.528-.949-1.548-2.289-3.308-.529-4.957,1.549-1.429,2.559.27,3.778,1.069,3.618,2.229,7.3,4.1,11.874,1.279a80.809,80.809,0,0,1-5.008-8.516c-.959-2.079-2.608-4.528,2.129-5.437,2.819-.53,3.939-4.628,3.618-7.766-.529-4.628,3.459-7.237,4.577-11.234.64-2.339,3.3-.48,3.618,1.549a6.674,6.674,0,0,0,4.1,5.377c2.349,1.06,2.988,3.3,2.668,5.637-.479,3.2.951,5.168,3.939,5.537a5.759,5.759,0,0,0,6.436-3.988c.64-1.659.48-4.108,2.928-4.048,2.609.1,1.6,3.138,2.609,4.148,2.928,2.93,2.868,6.5,3.408,10.116.259,1.7,1.169,4.467,2.339,4.787,7.025,1.919,3.028,5.537,1.6,8.736-.589,1.329-1.649,2.439-2.289,3.778-.7,1.329-2.4,2.709,1.219,2.868,3.408.16.589,3.2,1.33,5.427,1.069-5.587,6.386-5.528,9.265-8.516a1.682,1.682,0,0,1,2.5.11,2.747,2.747,0,0,1-.05,3.618c-2.178,2.718-4.577,5.057-3.408,9.265.48,1.649-2.079,1.429-3.408,1.809a1.977,1.977,0,0,0-1.649,2.5c.37,1.12,1.489.74,2.4.48.529-.109,1.12-.589,1.539-.48,2.819.85,7.027.32,7.826,3.669.85,3.628-3.407,2.878-5.427,4.1a37.178,37.178,0,0,0-6.916,5.537c2.759-.85,4.838-1.749,7.177,1.12.8.96,5.437-.69,7.935-1.919,1.38-.64,2.239-2.658,4.149-1.489,1.709,1.069,1.649,3.089,1.229,4.528-1.489,5,2.979,9.734.319,14.692a1.833,1.833,0,0,0,.1,1.009c5.117-.06,4.418,5.8,7.665,7.507,4.628,2.448,4.738,5.477,1.87,9.415-1.279,1.709-2.988,3.358-2.928,5.807,1.649,1.329,2.229-.48,3.188-1.02,4.308-2.289,8.416-2.709,12.194,1.02a15.655,15.655,0,0,0,7.026,4.358c1.65.479,3.618.43,3.988-1.7.32-1.869-1.389-2.769-2.878-2.658-7.717.419-7.5-7.666-11.764-10.915-.74-.589-.371-2.608.859-2.718,2.448-.1,5.107-1.27,7.445.48,1.17.91,1.39,3.938,3.519,2.448,1.649-1.219,2.658-3.458,3.618-5.427.689-1.489-1.01-1.489-1.87-2.019-4.628-2.93-6.277-10.165-3.827-14.963,1.7-3.348,3.247-5.746,7.455-1.489-2.988-7.926,1.17-14.632,1.429-21.659.06-1.439.43-3.2,2.289-3.3,1.549-.11,1.87,1.439,2.559,2.5,3.089,4.738,7.077,9.156,3.828,15.432-.319.64-.42,1.759.589,1.759,6.278-.11,2.709,6.067,5.378,8.515,1.109,1.009-1.229,3.2-2.029,5.168,2.129.64,4.209-2.669,5.967-.16,1.489,2.019-.64,3.778-.91,5.637-.8,4.628-1.059,9.425-8.455,9.314,13.193,3.569.15,8.466,1.809,12.615.48-.05,1.219.049,1.38-.21,3.248-5.648,7.506-4.787,12.184-2.029.749.43,2.028,1.279,2.448.38,2.189-4.368,4.688-1.919,7.616-.96-3.408-1.869-4.787-6.127-9.265-6.387-1.969-.109-3.879-.85-3.988-3.088-.21-2.5,1.859-2.448,3.778-2.928,3.508-.96,4.418-8.246,1.539-12.294-.949-1.329-2.338-2.4-2.278-4.258,0-2.178,1.379-3.617,2.978-1.968,1.859,1.809,4.948,1.6,6.117,3.408,2.819,4.418,4.208-2.029,6.438-.53.859-1.919-.85-2.988-1.54-4.318-.85-1.649-1.969-3.138-2.818-4.787-1.23-2.448-2.239-4.367,1.908-5.647,3.678-1.219,4-5.427,4.1-8.886.16-4.048,4.637-6.016,4.527-10.325-.049-1.169,2.769-.64,3.2,1.069a10.526,10.526,0,0,0,5.477,7.126,3.3,3.3,0,0,1,1.12,2.4c.43,3.408-1.169,7.766,4.468,8.456.379.06,1.009,1.758.749,2.448-1.968,5.647,3.189,7.186,5.747,10.225a2.339,2.339,0,0,0,1.969.479c1.009-.37,1.058-1.439.8-2.338a16.563,16.563,0,0,0-4-7.246c-3.509-3.718-5.428-8.356-7.237-13.033-1.969-5.217-.42-7.246,5.108-7.567,3.468-.209,5.007-2.868,3.307-5.847-1.389-2.448-3.307-4.8.26-7.086,1.439-.9.75-2.289.589-3.508-.27-2.769-1.069-5.747,2.979-6.547.43-.05,1.169-.85,1.069-1.12-1.869-6.807,4.888-9.636,6.757-14.693.69-1.968,3.508-3.508,3.668-1.539.27,3.938,3.888,5.8,4.158,9.475.21,3.988.58,8.145,5.477,9.8,2.019.689,1.809,2.608.959,4.257-1.009,1.969-2.178,3.828-3.2,5.8-.689,1.329-2.5,3.887-1.169,3.887,2.129,0,3.618,4.948,6.226.85.91-1.439,3.568-.8,4.8-2.5.79-1.069,2.019-1.869,3.348-.85,1.379,1.11,1.069,2.769.109,3.939-2.079,2.608-4.418,4.787-3.677,8.725.379,2.019-1.7,1.919-3.249,1.859s-2.658.7-2.289,2.289c.27,1.39,1.759,1.44,2.718.96,2.339-1.219,4.208.06,6.337.64,1.81.48,3.988.48,3.828,2.979-.05,1.869-1.7,2.769-3.508,2.988-4.158.529-6.337,3.988-9.535,6.277,2.508.109,5.377-3.249,7.186,1.279.479,1.279,2.238-.48,3.407-.8,1.39-.32,2.659-.32,3.459.959a2.693,2.693,0,0,1-1.169,3.828c-3.189,1.7-5.477,3.618-4.209,7.776.161.529-1.268,2.129-1.428,2.019-5.648-2.718-4.8,5.378-8.786,5.378-.69,0-1.33,1.33-.85,2.339a1.5,1.5,0,0,0,2.339.589c2.019-1.279,4.1-1.069,6.387-.7,2.658.43,3.138-2.129,3.938-3.878,1.169-2.509,2.769-4.159,5.647-2.509,2.769,1.6,1.909,3.678.371,5.6-1.54,1.81-1.86,3.618-.64,5.588,2.818,4.677,1.968,7.346-3.888,7.5-.739,0-1.429.379-1.649,1.659a8.529,8.529,0,0,0,9.105-.06c2.608-1.6.959-4.307.58-6.6-.26-1.859-2.069-4.258.539-5.487,2.23-1.011,3.029,1.439,4.1,2.827.959,1.17,1.649,2.659,3.558,1.59a3.182,3.182,0,0,0,1.549-4.258,44.973,44.973,0,0,1-2.449-11.864c-.109-1.549-.689-3.088,1.17-3.778,2.129-.8,3.518.58,4.527,2.229,2.5,4.158,5.218,7.987,9.735,11.075,1.229-3.508.48-6.067-2.339-7.286-6.656-3.039-5.487-9.535-6.817-14.8-.64-2.389,1.65-3.089,3.729-2.069a22.967,22.967,0,0,1,3.568,2.6c1.759,1.39,3.568,3.039,5.857,1.18,2.179-1.81,2.339-4.1.949-6.5-.689-1.33-1.489-2.559-2.289-3.828-3.078-4.958-2.868-5.277,2.988-6.657a17.666,17.666,0,0,0,3.459-1.649c1.219-.589,3.348.1,3.249-2.189-.06-1.649-1.489-2.5-2.879-3.028-3.028-1.12-3.888-3.249-3.138-6.177a8.079,8.079,0,0,0-.43-4.358c-1.33-4.158-1.06-6.547,4.637-6.387,4.468.1,4.148-5.277,5.108-8.046,1.219-3.458,3.618-6.436,4.577-9.365,1.969-6.277,6.6-11.495,7.076-18.312.27-4.037,1.44-7.975,2.4-11.914.37-1.649,1.38-3.358,3.459-2.928a3,3,0,0,1,2.129,4.358c-2.349,5.378,3.408,10.325.479,15.652-.319.529.32,1.33,1.27,1.439a7.072,7.072,0,0,1,2.189.21c3.088,1.489.1,6.547,5.267,7.986,2.5.64,1.7,6.437-2.289,8.936-1.489.959-1.439,3.148-.48,4.577,1.229,1.709,2.24-.05,3.2-.69,1.169-.689,2.5-1.488,3.508-.209a3.707,3.707,0,0,1-.109,5.107c-2.609,2.719-2.709,4.688.479,7.186,2.35,1.859,2.08,4.847,1.65,7.766-.48,3.249-1.429,6.867.749,9.7,1.7,2.178,4.048,4.517,7.556,2.338a2.774,2.774,0,0,1,3.939.9c1.009,1.5.529,2.878-.74,3.938a8.148,8.148,0,0,0-3.088,5.057c-.69,4.048-3.138,5.7-7.237,4.418-2.079-.64-4.157-.319-4.367,1.919-.16,2.5,2.339,1.6,3.828,1.81.539.109,1.119-.11,1.649,0,2.878.64,6.607-1.6,8.355,2.289.7,1.489-6.117,8.355-8.516,8.145-5.427-.43-4.307,4.258-4.517,6.438-.379,3.568,3.249,1.919,5.057,1.968,5.957.06,11.6-2.019,17.351-3.458,1.7-.43,3.778-1.489,4.737.959.74,1.919-1.439,2.769-2.028,4.1-2.229,4.847-8.3,6.6-9.366,12.343-.589,3.148-3.728,3.148-6.176,3.938-1.01.32-2.179.86-2.23,2.129a2.709,2.709,0,0,0,2.449,2.669c4.628,1.06,9.315,2.178,14.043,2.868,5.117.8,9.424.06,13.093-4.787,2.608-3.408-1.969-6.976,1.179-9.045,2.659-1.81,5.368-2.769,4.2-6.817a3.882,3.882,0,0,1,1.759-4.838c2.5-1.229,4.1-2.878,4.418-5.806a2.308,2.308,0,0,1,2.718-2.179c1.219.16,1.54,1.33,1.859,2.448,1.44,4.308,4.258,8.137,4.418,12.934a3.692,3.692,0,0,0,1.54,2.868c8.036,3.459,2.718,7.666.75,11.654-.64,1.279-2.449,2.718-1.44,3.838,1.17,1.279,3.939,1.06,3.359,3.888.319-.27.848-.54,1.009-.91,1.379-3.189,5.267-2.559,7.186-4.847.949-1.06,2.229-1.489,3.348-.161,1.009,1.18.589,2.559-.161,3.628-2.079,2.709-4.9,4.838-3.668,9.156.42,1.649-1.869,1.749-3.408,1.54-1.279-.161-2.339.43-2.239,1.809.161,1.489,1.65,1.6,2.609,1.219,2.769-1.219,4.948.54,7.346,1.18,1.33.37,2.45.85,2.5,2.5.06,1.809-1.169,2.608-2.608,3.088-1.06.37-2.229.42-3.239.8-1.659.58-3.628,2.129-2.238,3.348,1.379,1.17.739,5.218,4.367,3.569,1.81-.8,4.1-2.179,5.108.58.9,2.289-1.169,3.628-2.979,4.687-1.549.85-2.829,1.81-2.448,3.888.319,1.919,1.968,1.919,3.3,2.449,2.449.848,4.838,1.809,7.346,2.548,2.069.64,4.258.64,5-1.908,1.23-4.048,3.249-3.2,5.7-1.23.96.8,2.29,1.919,3.3.37.91-1.429-1.009-1.589-1.649-2.338-4.789-5.537-11.444-9.315-15.063-16.023-3.508-6.487-3.348-6.966,3.778-7.605,3.039-.27,3.459-1.919,2.029-4.1-3.149-5.007-1.66-11.394-5.218-16.232a2.192,2.192,0,0,1,.74-2.988,2.113,2.113,0,0,1,2.979.43c3.677,4.628,10.754,4.148,14.052,9.315a1.853,1.853,0,0,0,2.448.739c1.069-.689,1.069-1.809.8-2.978a8.177,8.177,0,0,0-3.189-5c-3.408-2.608-2.449-6.337-2.988-9.744-.05-.32.109-.96.319-1.01,6.657-1.809,3.039-7.605,4.258-11.494,1.439-4.468,3.678-5.967,7.876-3.249,2.608,1.7,4.737,4.258,7.826,5.168,1.758.469,4.208,1.009,4.787-1.279.64-2.289-1.81-2.508-3.348-2.609-6.976-.479-6.867-7.935-11.075-11.174-.58-.43-.319-2.238.54-2.4,2.229-.371,5.847-1.279,6.757-.21,6.016,7.5,6.067-1.6,9.365-2.609-7.186-3.888-10.115-11.284-7.076-16.5,1.809-3.038,3.249-7.026,7.986-.749-3.358-8.775.9-15.7,1.17-22.938a2.785,2.785,0,0,1,2.019-2.979c1.649-.32,1.919,1.329,2.718,2.238,8.775,10.215,16.342,21.819,30.285,26.076,2.448.69,4.467,2.559,6.755,3.779.8.43,1.859.749,2.559-.11.74-.85,0-1.7-.479-2.5a7.3,7.3,0,0,0-5.008-3.089,19.552,19.552,0,0,1-5.217-1.809,2.916,2.916,0,0,1-1.649-3.728c.64-1.81,2.289-1.75,3.728-1.429,2.339.529,4.628,1.328,6.976,1.859,1.219.319,2.819.529,3.239-1.12.319-1.279-1.11-1.649-1.86-2.388a150.578,150.578,0,0,0-17.35-15.6,8.389,8.389,0,0,1-2.449-10.584c1.33-2.718.21-5.008-.689-7.456-.59-1.379-.8-3.138.64-4.048,1.649-1.06,2.5.8,3.718,1.5,6.976,3.988,10.064,12.024,16.821,16.172,1.009.59,1.759,2.4,3.2,1.279,1.279-1.009.32-2.339-.16-3.568-2.079-5.8-7.507-9.625-9.426-15.542-.689-2.129-1.859-4.038-1.919-6.327,0-3.358.431-5.7,4.9-5.378,4.528.371,5.858-2.128,3.678-5.956-1.39-2.349-.96-3.838.05-6.657,1.649-4.418,1.279-9.475,5.746-12.662-3.028-7.407,6.708-8.736,7.027-14.753.11-1.219,3.039-1.009,2.979.16-.16,4.478,4.577,6.657,4.418,11.345-.1,2.818-.53,7.506,5.057,7.926,1.759.16,1.489,2.769.75,4.308-.91,2.028-2.24,3.838-3.2,5.857-.581,1.169-2.659,3.138-.9,3.518,1.7.371,3.088,3.239,5.267,1.27,1.649-1.539,4.307-1.009,5.8-2.979.8-1.06,2.08-1.809,3.359-.64,1.169,1.12.8,2.559.049,3.618-2.069,2.879-4.9,5.327-3.728,9.635.319,1.33-1.649,1.65-3.029,1.39-1.489-.22-2.818.26-2.608,1.969.16,1.379,1.649,1.539,2.608,1.119,2.4-1.119,4.209-.109,6.227.9,1.379.69,3.618-.05,3.778,2.339s-1.649,3.248-3.508,3.518c-3.789.58-5.807,3.669-8.676,5.747,4.358-2.5,8.036,3.249,12.613,1.33,1.489-.64,1.219,3.458-.54,4.467-3.028,1.819-4.677,4-4.2,7.616a3.941,3.941,0,0,1-.908,1.859c-5.108-2.289-4.9,3.939-7.876,5.008-1.649.58-2.718,1.759-1.919,3.348.91,1.869,2.079-.05,3.2-.16,4.577-.371,8.995-.48,10.694-6.167.529-1.759,2.879-1.39,4.368-.319a2.808,2.808,0,0,1,.739,4.358c-2.609,2.928-1.969,5.487-.26,8.515,1.81,3.2.32,4.847-3.088,5.278-1.17.16-3.039-.11-2.879,1.7.11,1.81,2.03,2.02,3.459,1.859a15.515,15.515,0,0,0,11.444-5.956c1.6-1.969,3.468-6.017,6.226-3.939,3.249,2.449-.69,5.158-1.909,7.557a17.512,17.512,0,0,1-6.547,6.656c-1.709,1.06-3.778,2.179-4.577,3.828-2.4,4.787-5.168,8.1-11.174,6.277a2.443,2.443,0,0,0-3.148,2.4c.16,3.408-1.81,5.7-4.358,8.095,9.575,3.459,14.9-2.827,20.6-7.616,2.5-2.129,4.248-5.057,6.487-7.556,1.009-1.069,2.5-2.178,3.889-1.069,1.6,1.23.8,2.928.049,4.528-.959,1.919-4.947,3.988-2.658,5.537,3.089,2.069,3.669-2.129,4.787-4.258.43-.85,1.069-1.649,2.189-1.39a2.768,2.768,0,0,1,2.069,2.928c.27,7.077,4.418,13.733,1.6,21.45,4.9-2.23,4.787-2.129,7.875,2.349.96,1.429.85,4.418,2.659,4.148,1.709-.27,3.307-2.339,4.418.37.959,2.289.269,4.688-1.12,6.817a9.4,9.4,0,0,0-1.75,3.408c-.269,1.968-.589,4.1,2.819,4.037,3.988-.049,3.728,2.4,1.6,4.478a14.494,14.494,0,0,0-4,5.8c-.9,2.769-3.348,3.088-5.847,3.3-1.649.16-3.408.64-4.048,2.4a1.877,1.877,0,0,0,.74,1.809,4.584,4.584,0,0,0,5.217-.48c.91-.689,1.549-1.7,2.508-2.178,4.418-2.349,8.3-5.907,13.994-1.549,5.057,3.888,11.394,1.809,17.141.8,2.5-.43,4.837-1.809,7.556-1.7a2.871,2.871,0,0,0,3.138-2.509c.269-1.859-1.44-2.769-2.769-2.919-4.038-.589-5.858-2.718-5.858-6.706,0-.64-.629-1.809-1.009-1.809-5.536-.06-5.107-6.657-9.095-8.366a2.465,2.465,0,0,1-1.33-3.3c.63-1.489,2.019-1.489,3.348-1.17,3.039.75,6.067,1.489,9.105,2.339a28.969,28.969,0,0,0,10.424,1.18c1.81-.16,5.117,1.429,4.688-2.559-.27-2.5.96-6.337-4.148-5.747-5.277.64-5.757-4.947-8.625-7.4-1.39-1.229,1.279-2.769,2.818-2.928,2.769-.27,5.588-.16,8.356-.21,1.069-.06,2.559.161,2.658-1.229a2.19,2.19,0,0,0-2.549-2.339c-10.325,3.568-8.466-7.935-13.413-11.124-1.649-1.069,1.06-3.678,3.778-3.3,7.875,1.059,9.685-.8,8.946-8.736-.431-4.518-1.549-9.315,3.508-12.454,2.129-1.33.8-2.819-.32-4.148-1.439-1.759-3.088-3.568-1.649-5.907,1.81-2.928,3.408-.48,5.008.42a1.44,1.44,0,0,0,2.289-.63c.79-1.439,1.009-2.928-.43-4-5.428-4.149-4.9-7.717.37-11.814,1.968-1.489.749-6.708,5.806-5.218.05,0,.69-1.059.53-1.329-2.928-5.267,2.339-10.325.37-15.592-.64-1.709-.37-4,1.969-4.528s3.358,1.33,3.778,3.2a93.854,93.854,0,0,1,2.289,10.8,27.62,27.62,0,0,0,2.4,8.515c4.307,8.246,8.675,16.492,11.6,25.327.739,2.289,1.488,3.728,4.148,2.718a2.838,2.838,0,0,1,3.518.85c1.81,2.239-.8,14.262-3.518,15.7-1.489.8-3.249,1.539-3.3,3.408-.109,2.818,2.559,1.379,3.828,1.919,7.886,3.138,7.886,3.028,4.318,11.7-.96,2.238-1.549,4.9.48,6.757,2.289,2.028,4.467.43,6.436-1.06,1.009-.8,1.969-1.709,3.039-2.448,1.109-.8,2.388-1.17,3.558-.161a2.546,2.546,0,0,1,.8,3.029c-2.019,5.057-.739,11.874-7.766,14.322-.91.27-1.6,1.489-2.129,2.448-.69,1.12-1.069,2.659-.06,3.618,1.339,1.33,2.289-.37,3.148-1.12,3.669-2.978,5.847-7.125,8.516-10.914a3.409,3.409,0,0,0,.58-2.6c-.8-6.927-.8-6.927,5.7-4.528-3.568-5.537-3.039-10.115,2.019-14.742a3.3,3.3,0,0,0,.91-4c-3.138-6.807,4.787-9.366,5.537-14.633a2.332,2.332,0,0,1,1.909-.58c1.758.79,2.028,2.549,2.188,4.2.581,6.867,4.038,13.523.641,20.55,2.868.529,3.188-2.829,5.317-1.919,1.759.69,2.078,2.5,2.928,3.938,3.249,5.588.27,12.774-6.547,15.912-.16,1.649,1.44,2.028,2.29,2.878,1.119,1.17,1.329,4.948,3.188,3.348,1.76-1.489,5.537-2.5,4.688-6.327-.529-2.289.589-3.467,2.718-4a3.347,3.347,0,0,1,4.308,2.559c1.859,6.807,8.406,2.928,12.084,5.427a2.5,2.5,0,0,0,1.009-1.069,2.055,2.055,0,0,0-1.009-2.388c-2.29-.96-4.479-1.919-4-5.108,0-.27-.79-1.019-.949-1.019-5.967,2.768-4.688-1.81-5.217-4.838-.38-2.339-2.879-2.659-4.368-4-1.169-1.059-2.019-2.388-1.118-3.878.749-1.33,2.289-1.279,3.517-.749,2.129.849,3.459,1.709,5.157-1.33,1.549-2.769,3.519,1.489,6.337,1.169-2.608-2.658-5.007-4.838-8.095-6.117-2.229-.959-6.167-.589-5.588-3.938.59-3.518,5.008-2.818,7.616-4.157.64-.32,1.759.43,2.659.539,1.119.161,2.448.161,2.5-1.389a1.722,1.722,0,0,0-2.29-1.7c-3.188.58-4.307-.85-3.458-3.728.959-3.138-1.808-4.1-3.089-5.907-.949-1.44-2.068-2.93-.788-4.578,1.538-2.019,2.758-.27,4.147.64,3.568,2.4,7.286,4.149,11.863,1.33a77.491,77.491,0,0,1-5-8.565c-.91-2.029-2.718-4.528,2.129-5.427,2.769-.48,3.889-4.688,3.568-7.777-.479-4.628,3.778-7.027,4.578-11.174.37-2.028,3.238-.85,3.458.96.48,3.4,2.5,5.057,5.217,6.6a3.971,3.971,0,0,1,1.54,2.769c.21,3.348.05,6.6,3.938,8.306,1.17.529.96,2.339.8,3.618-.209,2.339-.8,4.418,1.6,6.436,1.7,1.489.21,3.729-.8,5.537-2.03,3.568-.591,5.857,3.568,5.857,4.887,0,6.646,2.069,5.157,6.807a39.145,39.145,0,0,1-6.916,13.2,19.355,19.355,0,0,0-2.718,3.508c-1.12,2.189-3.618,5.057-1.379,6.927,1.859,1.589,3.247-2.079,5-3.148,5.907-3.509,8.466-10.485,14.373-13.993,1.328-.8,2.289-2.818,4.208-1.6,1.759,1.119,1.12,2.878.42,4.467a8.621,8.621,0,0,0-.741,6.387,18.786,18.786,0,0,1,.531,2.2,13.875,13.875,0,0,0,.52-1.769c.27-1.33.959-2.5,2.559-2.4a2.313,2.313,0,0,1,2.129,2.239c.259,2.928,2.019,4.577,4.517,5.8a3.663,3.663,0,0,1,2.129,3.089c.18,2.908-.619,6.266,2.219,7.956a1.845,1.845,0,0,1,2.538-.66c1.909.9,1.06,2.868.48,4.418-.19.53-.39,1.05-.589,1.57.289,6,3.908,9.3,9.764,9.554a52.249,52.249,0,0,0,10.955-1.758c.09-.02.169-.041.259-.06,1.2-.3,2.409-.57,3.639-.78.03,0,.06-.01.09-.01.379-.08.769-.15,1.159-.21,1.7-.32,3.568-.54,3.938-2.4.43-2.178-1.7-2.928-3.138-3.2-3.938-.69-5.907-2.758-6.067-6.646-.06-.531-.43-1.439-.64-1.439-5.378-.32-4.847-6.707-8.835-8.466a2.766,2.766,0,0,1-1.649-3.669,1.893,1.893,0,0,1,2.218-1.219,5.731,5.731,0,0,1,2.659.26c2.968.659,5.907,1.559,8.865,2.279.15.029.289.07.439.1.38.09.76.18,1.14.259.769.161,1.539.311,2.319.45.289.05.58.1.869.14s.55.079.83.12a26.7,26.7,0,0,0,5.656.109,4.232,4.232,0,0,1,.61.011c2.309-.63,2.389-2.539,1.8-5.867-.259-1.51-.889-2.119-1.649-2.339-.16.01-.319.03-.49.05a6.872,6.872,0,0,1-2.238-.041c-5.057.071-5.567-5.057-8.286-7.566-1.33-1.219,1.279-2.718,2.868-2.878,2.769-.32,5.537-.161,8.306-.26,1.119-.06,2.448,0,2.448-1.6a1.927,1.927,0,0,0-2.239-1.919c-10,3.518-8.455-7.5-13.3-10.485-.85-.48-.53-2.129.27-3.028a3.118,3.118,0,0,1,2.848-.94,6.049,6.049,0,0,1,1.589.21h.011c6.206.769,8.055-1.17,8.106-7.736,0-5-1.81-10.435,3.568-14.262,1.229-.85.16-2.4-.58-3.459-1.439-2.029-3.089-4.418-1.17-6.5.87-.94,1.579-1.06,2.249-.8,1.649-.25,2.609,1.66,4.249,2.44.9-2.419.949-4.4-1.39-6.477-3.888-3.519-3.3-7.136,1.439-9.585a2.213,2.213,0,0,0,1.49-2.5c-.37-2.979.6-4.048,2.669-3.918a6.351,6.351,0,0,1,3.168.371c-3.848-6.677,1.249-12.664-.36-18.811a2.315,2.315,0,0,1,1.859-2.979,3.223,3.223,0,0,1,1.189-.04h.011a2.415,2.415,0,0,1,2.788,1.579,40.039,40.039,0,0,1,2.129,6.866c1.109,6.547,2.658,12.613,5.957,18.741,3.408,6.386,7.076,13.143,8.785,20.439.45,1.938,1.03,3.118,2.349,3.288.05,0,.11.01.16.01a2.575,2.575,0,0,0,.67-.03.13.13,0,0,0,.06-.01,6.064,6.064,0,0,0,1.23-.33,2.845,2.845,0,0,1,3.508.949c1.549,1.809-.69,14.322-2.979,15.382-2.079,1.019-3.887,2.129-4.577,4.9,3.247.8,6.447,1.809,9.745,2.4,3.618.689,3.568,2.608,2.129,5.157-1.17,2.079-2.669,4.048-3.729,6.177a4.3,4.3,0,0,0,1.12,5.537,3.37,3.37,0,0,0,1.679.779,7.311,7.311,0,0,0,2.589-.989c2.069-1.15,3.819-4.438,6.177-3.988a2.618,2.618,0,0,1,2.059.52c3.2,2.189-.05,5.757-.32,8.736-.259,3.668-1.7,6.755-5.637,8.085a4.235,4.235,0,0,0-2.658,3.358c-.22,1.06-.59,2.389.37,3.089a1.355,1.355,0,0,0,.409.21,5.546,5.546,0,0,0,1.619-1.17,34.317,34.317,0,0,0,6.447-8.256c1.06-1.679,2.12-3.938,4.268-3.518a2.806,2.806,0,0,1,1.679.169c2.24.85,1.759,3.029,1.38,4.838-.69,3.568-1.59,7.186-2.549,10.754-.529,2.129.05,3.828,1.859,4.738a2.413,2.413,0,0,0,.52.21c.709-.77,1.379-1.549,2.049-2.339.94-1.09,1.6-3.059,3.369-2.619a2.068,2.068,0,0,1,1.679.33c1.969,1.169.9,3.3.48,5.057-1.549,6.277,1.06,9.365,6.967,8.406,1.119-.161,2.4-.32,2.5-1.649.109-1.44-1.06-1.859-2.23-1.909-5.806-.22-5.377-3.149-3.088-6.976,1.169-1.919,1.279-3.729-.43-5.537-1.749-1.809-2.5-4.048,0-5.637,2.508-1.709,4.847-.7,5.7,2.069,1.859,6.5,8.145,2.769,11.714,5.277a1.768,1.768,0,0,0,1.109-.91,1.887,1.887,0,0,0-.69-2.448c-2.289-1.06-4.358-2.179-3.988-5.217a.728.728,0,0,0-.209-.53c-8.9,3.089-3.838-9.105-10.065-9.265-1.379-.05-2.178-2.069-1.539-3.668.739-1.81,2.548-1.549,3.827-.96,2.239,1.12,3.2.75,4.738-1.439,1.919-2.549,3.618,1.439,6.5,1.389a22.764,22.764,0,0,0-7.716-6.127c-2.349-1.109-6.766-.689-5.7-4.358.85-2.928,5-3.568,8.3-3.678a15.318,15.318,0,0,1,2.189.38c1.009.049,1.909-.32,1.859-1.5a1.518,1.518,0,0,0-1.809-1.59c-3.828.69-4.628-1.009-3.778-4.418.639-2.448-1.759-3.408-2.879-5.007-1.109-1.54-2.289-3.348-.85-5,1.709-1.969,2.769.37,4.158,1.009,3.138,1.54,6.756,2.339,7.605,7.346.85-2.559-1.859-5.647,2.45-5.6,2.078.06,1.229-1.379.749-2.229-.959-1.809-2.188-3.458-3.148-5.217-1.649-3.088-4.307-6.277,1.809-7.826,1.5-.42,2.93-2.868,2.559-4.628-.959-5.057,3.408-8.145,4.149-12.563a2.1,2.1,0,0,1,2.238-2.02,2.379,2.379,0,0,1,2.129,2.229c.43,2.879,2.18,4.528,4.628,5.858,1.809.959,2.238,2.818,2.129,4.8-.16,2.709-.05,5.207,3.309,6.007.209.06.319.221.469.32.75.64,1.339,1.709.859,2.448-3.088,4.688,5,8.356.96,13.414-2.609,3.2-.86,5.956,3.078,6.016,5.277.1,6.976,2.02,5.327,7.027-1.549,4.738-3.459,9.415-7.027,13.144a9.7,9.7,0,0,0-1.81,2.079c-1.278,2.549-4.527,5.8-2.289,7.875,2.289,2.179,3.618-2.4,5.7-3.458,6.067-3.089,8.245-10.274,14.212-13.413,1.219-.69,2.069-2.559,3.718-1.71,1.969,1.02,1.49,2.93.7,4.418-1.5,2.829-.959,5.378-.22,8.417,1.12,4.677-.85,9.415-5.108,11.284-7.076,3.189-10.055,10.535-16.281,14.363a2.33,2.33,0,0,0-.8,1.869,1.566,1.566,0,0,0,2.129,1.219c2.5-.64,4.948-1.379,7.447-2.069,1.649-.43,3.458-.8,4.208,1.33.64,1.909-.48,3.3-2.079,4.038a14.923,14.923,0,0,1-4.2,1.389c-3.728.53-6.017,2.5-7.087,6.916,13.253-5.427,25.817-10.754,34.172-22.618,1.06-1.54,1.81-4.468,4.308-3.249,2.4,1.229.8,3.728.06,5.427-3.039,7.136-6.387,14.1-11.125,20.33-3.728,4.957,1.59,7.086,3.939,9.635,2.178,2.4,5.267,3.618,7.4-.9,1.6-3.458,4.257-6.176,4.737-10.385.529-4.2,7.126-5.107,10.055-1.809.8.96,1.6,2.129,3.249,1.869.589-2.128-.96-3.407-1.919-4.847-3.508-5.157-3.459-5.427,4-7.605-10.544-.431-8.256-8.576-9.745-13.573-1.379-4.478,3.358-1.39,5.327-1.809-1.759-5.168-.43-9.315,4.208-13.414,1.27-1.169.47-2.609.05-3.568-2.928-6.867,3.408-10.325,5.747-15.112,1.219-2.559,3.348.049,3.458,1.859.32,7.3,4.738,14.212,1.39,21.978,2.709.221,3.878-3.827,5.637-1.488,1.809,2.5,4.947,4.9,3.668,8.734-1.429,4.468-2.069,9.625-8.136,10.645.9,2.019,2.769,2.818,3.408,4.677.739,2.339,2.229,2.179,3.618.431.85-1.07,1.7-2.669,2.919-2.29,2.238.8,5.217-1.328,6.607,1.12,1.488,2.549-1.87,3.508-2.719,5.318-2.129,4.418-4.628,7.776-10.055,7.875a2.072,2.072,0,0,0-1.968,2.769c.419,1.23,1.649,1.33,2.767,1.39a9.537,9.537,0,0,0,5.158-1.81c9.585-5.966,9.585-5.966,19.22-1.659.37-3.078-2.24-4.577-3.358-6.706-.9-1.81-3.249-4.038-1.81-5.427,3.508-3.348,5.537-8.246,10.165-10.375.959-.43,1.919-.75,1.389-1.7-3.088-5.7,1.969-10.964.47-16.772-.79-3.088,2.129-4.467,4.478-1.859s5.747,1.06,8.085,3.029c.27.22,1.071.06,1.49-.21,3.2-1.759,4.8-2.179,6.927-1.7-3.2-2.079-5.537-5.487-9.9-5.967-1.6-.16-3.3-1.009-3.249-3.138.06-2.019,1.6-2.129,3.088-2.559,2.4-.689,4.528-2.5,7.347-1.169a1.7,1.7,0,0,0,2.559-1.219c.16-1.39-.96-2.079-2.189-1.87-3.618.64-4.308-1.058-3.509-4.1.74-2.819-1.919-3.718-3.038-5.528-.96-1.548-2.289-3.308-.53-4.957,1.54-1.44,2.559.27,3.778,1.069,3.618,2.229,7.3,4.1,11.874,1.279a80.567,80.567,0,0,1-5.007-8.516c-.96-2.079-2.609-4.528,2.129-5.437,2.818-.53,3.938-4.628,3.618-7.766-.53-4.628,3.458-7.237,4.577-11.234.64-2.339,3.3-.48,3.618,1.549a6.673,6.673,0,0,0,4.1,5.377c2.349,1.06,2.979,3.3,2.669,5.637-.48,3.2.949,5.168,3.938,5.537a5.765,5.765,0,0,0,6.436-3.988c.64-1.659.48-4.108,2.929-4.048,2.608.1,1.6,3.138,2.608,4.148,2.928,2.93,2.868,6.5,3.408,10.116.26,1.7,1.17,4.467,2.339,4.787,7.027,1.919,3.028,5.537,1.6,8.725-.589,1.339-1.649,2.449-2.289,3.789-.7,1.329-2.4,2.709,1.219,2.868,3.408.16.59,3.2,1.33,5.427,1.069-5.587,6.387-5.537,9.265-8.516a1.682,1.682,0,0,1,2.5.11,2.747,2.747,0,0,1-.049,3.618c-2.189,2.718-4.578,5.057-3.408,9.265.479,1.649-2.08,1.429-3.408,1.809a1.976,1.976,0,0,0-1.649,2.5c.37,1.12,1.489.74,2.4.48.531-.109,1.11-.589,1.54-.48,2.818.85,7.027.32,7.826,3.669.85,3.618-3.408,2.878-5.427,4.1a37.55,37.55,0,0,0-6.927,5.537c2.769-.85,4.847-1.758,7.186,1.12.8.96,5.438-.69,7.936-1.919,1.379-.64,2.229-2.658,4.148-1.489,1.709,1.069,1.649,3.089,1.229,4.528-1.489,5,2.979,9.734.321,14.692a1.837,1.837,0,0,0,.1,1.009c5.108-.06,4.418,5.8,7.666,7.507,4.628,2.448,4.737,5.477,1.859,9.415-1.27,1.709-2.979,3.358-2.919,5.807,1.649,1.329,2.229-.48,3.189-1.02,4.307-2.289,8.406-2.709,12.193,1.02a15.684,15.684,0,0,0,7.016,4.358c1.66.479,3.629.43,4-1.7.319-1.869-1.39-2.769-2.879-2.658-7.716.419-7.506-7.666-11.764-10.915-.739-.589-.37-2.608.859-2.718,2.449-.1,5.108-1.27,7.447.48,1.169.91,1.389,3.938,3.517,2.448,1.649-1.219,2.658-3.458,3.618-5.427.69-1.489-1.02-1.489-1.869-2.019-4.628-2.93-6.277-10.165-3.828-14.963,1.7-3.348,3.249-5.746,7.446-1.489-2.977-7.926,1.18-14.632,1.44-21.659.049-1.439.43-3.2,2.289-3.3,1.549-.11,1.869,1.439,2.559,2.5,3.088,4.738,7.076,9.156,3.828,15.432-.32.64-.42,1.759.589,1.759,6.277-.11,2.709,6.067,5.376,8.515,1.11,1.009-1.229,3.2-2.028,5.168,2.129.64,4.208-2.669,5.967-.16,1.489,2.019-.64,3.778-.91,5.637-.8,4.628-1.06,9.425-8.466,9.314,13.2,3.569.16,8.466,1.808,12.615.48-.05,1.23.049,1.39-.21,3.249-5.648,7.506-4.787,12.184-2.029.75.43,2.03,1.279,2.448.38,2.189-4.368,4.688-1.919,7.616-.96-3.407-1.869-4.787-6.127-9.265-6.387-1.968-.109-3.878-.85-3.988-3.088-.21-2.5,1.859-2.448,3.778-2.928,3.509-.96,4.418-8.246,1.54-12.294-.949-1.329-2.339-2.4-2.289-4.258,0-2.178,1.389-3.617,2.988-1.968,1.859,1.809,4.947,1.6,6.117,3.408,2.818,4.418,4.208-2.029,6.436-.54.859-1.909-.85-2.979-1.539-4.308-.85-1.649-1.969-3.138-2.819-4.787-1.229-2.448-2.24-4.367,1.909-5.647,3.677-1.219,4-5.427,4.1-8.886.16-4.048,4.637-6.016,4.528-10.325-.05-1.169,2.769-.64,3.2,1.069a10.5,10.5,0,0,0,5.477,7.126,3.3,3.3,0,0,1,1.119,2.4c.42,3.408-1.169,7.766,4.468,8.456.37.06,1.009,1.758.75,2.448-1.969,5.647,3.188,7.186,5.746,10.225a2.341,2.341,0,0,0,1.969.479c1.009-.37,1.06-1.439.8-2.349a16.562,16.562,0,0,0-4-7.236c-3.508-3.718-5.427-8.356-7.237-13.033-1.968-5.217-.419-7.246,5.108-7.567,3.459-.209,5.008-2.868,3.3-5.847-1.379-2.448-3.3-4.8.27-7.086,1.44-.9.75-2.289.59-3.508-.27-2.769-1.069-5.747,2.978-6.547.431-.05,1.17-.85,1.06-1.12-1.859-6.807,4.9-9.636,6.766-14.693.69-1.968,3.509-3.508,3.669-1.539.27,3.938,3.889,5.8,4.148,9.475.22,3.988.589,8.145,5.487,9.8,2.02.689,1.81,2.608.96,4.257-1.009,1.969-2.189,3.828-3.2,5.8-.69,1.329-2.5,3.887-1.17,3.887,2.129,0,3.618,4.948,6.227.85.91-1.439,3.568-.8,4.787-2.5.8-1.069,2.029-1.869,3.358-.85,1.38,1.11,1.06,2.769.11,3.939-2.079,2.608-4.418,4.787-3.678,8.725.37,2.019-1.7,1.919-3.249,1.859s-2.658.7-2.289,2.289c.27,1.39,1.759,1.44,2.719.96,2.338-1.219,4.208.06,6.337.64,1.808.48,3.988.48,3.827,2.979-.049,1.869-1.7,2.769-3.508,2.988-4.157.529-6.337,3.988-9.535,6.277,2.508.109,5.378-3.249,7.186,1.279.48,1.27,2.238-.48,3.408-.8,1.389-.32,2.658-.32,3.458.959a2.693,2.693,0,0,1-1.169,3.828c-3.189,1.7-5.477,3.618-4.208,7.776.16.529-1.27,2.129-1.429,2.019-5.646-2.718-4.8,5.378-8.785,5.378-.69,0-1.33,1.33-.85,2.339a1.494,1.494,0,0,0,2.338.589c2.02-1.279,4.1-1.069,6.387-.7,2.658.43,3.138-2.129,3.938-3.878,1.17-2.509,2.769-4.159,5.648-2.509,2.758,1.6,1.908,3.678.37,5.6-1.549,1.81-1.869,3.618-.64,5.588,2.818,4.677,1.969,7.336-3.888,7.5-.739,0-1.439.379-1.649,1.659a8.529,8.529,0,0,0,9.105-.06c2.609-1.6.96-4.307.58-6.6-.259-1.859-2.069-4.258.54-5.487,2.229-1.011,3.028,1.439,4.1,2.827.951,1.17,1.65,2.659,3.558,1.59a3.181,3.181,0,0,0,1.549-4.258,45.017,45.017,0,0,1-2.448-11.864c-.11-1.549-.69-3.088,1.169-3.778,2.129-.8,3.508.58,4.528,2.229,2.5,4.158,5.207,7.987,9.734,11.075,1.23-3.508.48-6.067-2.338-7.286-6.657-3.039-5.488-9.535-6.817-14.8-.64-2.389,1.649-3.089,3.728-2.079a23.679,23.679,0,0,1,3.568,2.608c1.75,1.39,3.568,3.039,5.858,1.18,2.178-1.81,2.339-4.1.949-6.5-.69-1.33-1.489-2.559-2.289-3.828-3.078-4.958-2.868-5.277,2.988-6.657a17.62,17.62,0,0,0,3.458-1.649c1.219-.589,3.348.1,3.249-2.189-.06-1.649-1.5-2.5-2.879-3.028-3.037-1.12-3.887-3.249-3.137-6.177a8.066,8.066,0,0,0-.431-4.358c-1.328-4.158-1.058-6.547,4.628-6.387,4.478.1,4.158-5.277,5.117-8.046,1.219-3.458,3.618-6.436,4.578-9.365,1.968-6.277,6.6-11.495,7.076-18.312.27-4.037,1.439-7.975,2.4-11.914.37-1.649,1.379-3.358,3.458-2.928a3,3,0,0,1,2.129,4.358c-2.349,5.378,3.4,10.325.48,15.652-.32.529.319,1.33,1.27,1.439a7.068,7.068,0,0,1,2.188.21c3.089,1.489.1,6.547,5.267,7.986,2.5.64,1.7,6.437-2.289,8.936-1.489.959-1.439,3.148-.48,4.577,1.219,1.709,2.24-.05,3.2-.69,1.17-.689,2.5-1.488,3.509-.209a3.707,3.707,0,0,1-.11,5.107c-2.609,2.719-2.709,4.688.48,7.186,2.349,1.859,2.079,4.847,1.649,7.766-.48,3.249-1.429,6.867.75,9.7,1.7,2.178,4.048,4.517,7.556,2.338a2.773,2.773,0,0,1,3.938.9c1.009,1.489.529,2.878-.739,3.938a8.156,8.156,0,0,0-3.089,5.057c-.7,4.048-3.138,5.7-7.246,4.418-2.068-.64-4.147-.319-4.358,1.919-.16,2.5,2.339,1.6,3.828,1.81.529.109,1.12-.11,1.649,0,2.879.64,6.607-1.6,8.355,2.289.7,1.489-6.116,8.355-8.515,8.145-5.427-.43-4.308,4.258-4.517,6.438-.38,3.568,3.248,1.919,5.057,1.968,5.956.06,11.593-2.019,17.35-3.458,1.7-.43,3.778-1.489,4.729.959.749,1.919-1.429,2.769-2.02,4.1-2.238,4.838-8.3,6.6-9.365,12.343-.59,3.148-3.729,3.148-6.177,3.938-1.009.32-2.179.86-2.229,2.129a2.708,2.708,0,0,0,2.448,2.669c4.628,1.06,9.306,2.178,14.043,2.868,5.117.8,9.426.06,13.093-4.787,2.609-3.408-1.968-6.976,1.169-9.045,2.669-1.81,5.378-2.769,4.209-6.817a3.871,3.871,0,0,1,1.758-4.838c2.5-1.229,4.1-2.878,4.419-5.806a2.3,2.3,0,0,1,2.707-2.179c1.23.16,1.549,1.33,1.87,2.448,1.439,4.308,4.258,8.137,4.418,12.934a3.691,3.691,0,0,0,1.539,2.868c8.036,3.459,2.719,7.666.75,11.654-.64,1.279-2.448,2.718-1.439,3.838,1.169,1.279,3.938,1.06,3.348,3.888.319-.27.859-.54,1.019-.91,1.379-3.189,5.267-2.559,7.186-4.847.949-1.06,2.229-1.489,3.348-.161,1.009,1.18.589,2.559-.16,3.628-2.079,2.709-4.9,4.838-3.669,9.156.42,1.649-1.869,1.749-3.408,1.54-1.278-.161-2.338.43-2.238,1.809.16,1.489,1.649,1.6,2.609,1.219,2.767-1.219,4.947.54,7.346,1.18,1.328.37,2.448.85,2.5,2.5.06,1.809-1.17,2.608-2.609,3.088-1.06.37-2.229.42-3.247.8-1.65.58-3.618,2.129-2.23,3.348,1.38,1.17.74,5.218,4.358,3.569,1.819-.8,4.108-2.179,5.117.58.9,2.289-1.169,3.628-2.988,4.687-1.539.85-2.818,1.81-2.448,3.888.319,1.919,1.979,1.919,3.309,2.449,2.448.848,4.837,1.809,7.346,2.548,2.069.64,4.258.64,5-1.908,1.229-4.048,3.248-3.2,5.7-1.23.959.8,2.289,1.919,3.3.37.91-1.429-1.009-1.589-1.649-2.338-4.787-5.537-11.444-9.315-15.063-16.023-3.508-6.487-3.358-6.966,3.779-7.605,3.037-.27,3.458-1.919,2.019-4.1-3.138-5.007-1.649-11.394-5.207-16.232a2.192,2.192,0,0,1,.739-2.988,2.114,2.114,0,0,1,2.979.43c3.678,4.628,10.754,4.148,14.052,9.315a1.854,1.854,0,0,0,2.449.739c1.069-.689,1.069-1.809.8-2.978a8.139,8.139,0,0,0-3.2-5c-3.4-2.608-2.448-6.337-2.979-9.744-.049-.32.11-.96.32-1.01,6.656-1.809,3.038-7.605,4.257-11.494,1.44-4.478,3.678-5.967,7.876-3.249,2.609,1.7,4.738,4.258,7.826,5.168,1.759.469,4.208,1.009,4.787-1.279.64-2.289-1.809-2.508-3.348-2.609-6.976-.479-6.866-7.935-11.074-11.184-.579-.42-.32-2.229.539-2.388,2.23-.371,5.847-1.279,6.757-.21,6.017,7.5,6.067-1.6,9.366-2.609-7.186-3.888-10.115-11.284-7.077-16.5,1.81-3.038,3.249-7.026,7.987-.749-3.359-8.775.9-15.7,1.169-22.938a2.785,2.785,0,0,1,2.019-2.979c1.649-.32,1.919,1.329,2.719,2.238,8.775,10.215,16.331,21.819,30.284,26.076,2.448.69,4.468,2.559,6.757,3.779.8.43,1.859.749,2.548-.11.75-.85,0-1.7-.469-2.5a7.319,7.319,0,0,0-5.007-3.089,19.562,19.562,0,0,1-5.218-1.809,2.917,2.917,0,0,1-1.649-3.728c.64-1.81,2.289-1.75,3.729-1.429,2.338.529,4.626,1.328,6.966,1.859,1.23.319,2.829.529,3.249-1.12.32-1.279-1.12-1.649-1.859-2.388a151.5,151.5,0,0,0-17.352-15.6,8.388,8.388,0,0,1-2.448-10.584c1.329-2.718.21-5.008-.69-7.456-.589-1.379-.8-3.138.64-4.048,1.649-1.06,2.5.8,3.718,1.5,6.976,3.988,10.065,12.024,16.822,16.172,1.009.59,1.758,2.4,3.2,1.279,1.269-1.009.319-2.339-.161-3.568-2.079-5.8-7.506-9.625-9.425-15.542-.69-2.129-1.859-4.038-1.919-6.327,0-3.358.43-5.7,4.9-5.378,4.527.371,5.856-2.128,3.677-5.966-1.388-2.339-.959-3.828.051-6.648,1.649-4.418,1.279-9.475,5.747-12.673-3.029-7.4,6.706-8.725,7.026-14.742.11-1.219,3.039-1.009,2.979.16-.159,4.478,4.579,6.657,4.418,11.345-.1,2.818-.529,7.5,5.057,7.926,1.759.16,1.489,2.769.75,4.308-.91,2.028-2.239,3.838-3.2,5.857-.58,1.169-2.658,3.138-.9,3.518C2066.761,368.671,2068.151,371.54,2070.329,369.57Z" transform="translate(-155.249 -334.367)"/></svg>